HIERARCHY
ROOT hip
{
OFFSET -0.11 88.76 -1.25
CHANNELS 6 Xposition Yposition Zposition Zrotation Xrotation Yrotation
JOINT abdomen
{
OFFSET 0 7.23 0
CHANNELS 6 Xposition Yposition Zposition Zrotation Xrotation Yrotation
JOINT chest
{
OFFSET 0 16.54 0
CHANNELS 6 Xposition Yposition Zposition Zrotation Xrotation Yrotation
JOINT neck
{
OFFSET 0 34.21 0
CHANNELS 6 Xposition Yposition Zposition Zrotation Xrotation Yrotation
JOINT head
{
OFFSET 0 6.29 0
CHANNELS 6 Xposition Yposition Zposition Zrotation Xrotation Yrotation
End Site
{
OFFSET 0 21.21 0
}
}
}
JOINT lCollar
{
OFFSET 4.06 26.61 -1.12
CHANNELS 6 Xposition Yposition Zposition Zrotation Xrotation Yrotation
JOINT lShldr
{
OFFSET 14.17 0 0
CHANNELS 6 Xposition Yposition Zposition Zrotation Xrotation Yrotation
JOINT lForeArm
{
OFFSET 26.12 0 0
CHANNELS 6 Xposition Yposition Zposition Zrotation Xrotation Yrotation
JOINT lHand
{
OFFSET 27.71 0 0
CHANNELS 6 Xposition Yposition Zposition Zrotation Xrotation Yrotation
JOINT lThumb1
{
OFFSET 2.29 -0.46 1.83
CHANNELS 6 Xposition Yposition Zposition Zrotation Xrotation Yrotation
JOINT lThumb2
{
OFFSET 5.29 0 0
CHANNELS 6 Xposition Yposition Zposition Zrotation Xrotation Yrotation
JOINT lThumb3
{
OFFSET 3.01 0 0
CHANNELS 6 Xposition Yposition Zposition Zrotation Xrotation Yrotation
End Site
{
OFFSET 2.62 0 0
}
}
}
}
JOINT lIndex1
{
OFFSET 9.37 0.29 2.59
CHANNELS 6 Xposition Yposition Zposition Zrotation Xrotation Yrotation
JOINT lIndex2
{
OFFSET 4.34 0 0
CHANNELS 6 Xposition Yposition Zposition Zrotation Xrotation Yrotation
JOINT lIndex3
{
OFFSET 2.16 0 0
CHANNELS 6 Xposition Yposition Zposition Zrotation Xrotation Yrotation
End Site
{
OFFSET 2.20 0 0
}
}
}
}
JOINT lMid1
{
OFFSET 9.47 0.83 0.29
CHANNELS 6 Xposition Yposition Zposition Zrotation Xrotation Yrotation
JOINT lMid2
{
OFFSET 4.77 0 0
CHANNELS 6 Xposition Yposition Zposition Zrotation Xrotation Yrotation
JOINT lMid3
{
OFFSET 2.87 0 0
CHANNELS 6 Xposition Yposition Zposition Zrotation Xrotation Yrotation
End Site
{
OFFSET 2.09 0 0
}
}
}
}
JOINT lRing1
{
OFFSET 8.65 1.01 -1.70
CHANNELS 6 Xposition Yposition Zposition Zrotation Xrotation Yrotation
JOINT lRing2
{
OFFSET 4.54 0 0
CHANNELS 6 Xposition Yposition Zposition Zrotation Xrotation Yrotation
JOINT lRing3
{
OFFSET 2.50 0 0
CHANNELS 6 Xposition Yposition Zposition Zrotation Xrotation Yrotation
End Site
{
OFFSET 2.20 0 0
}
}
}
}
JOINT lPinky1
{
OFFSET 7.69 0.66 -3.90
CHANNELS 6 Xposition Yposition Zposition Zrotation Xrotation Yrotation
JOINT lPinky2
{
OFFSET 3.21 0 0
CHANNELS 6 Xposition Yposition Zposition Zrotation Xrotation Yrotation
JOINT lPinky3
{
OFFSET 1.92 0 0
CHANNELS 6 Xposition Yposition Zposition Zrotation Xrotation Yrotation
End Site
{
OFFSET 1.78 0 0
}
}
}
}
}
}
}
}
JOINT rCollar
{
OFFSET -4.06 26.61 -1.12
CHANNELS 6 Xposition Yposition Zposition Zrotation Xrotation Yrotation
JOINT rShldr
{
OFFSET -14.17 0 0
CHANNELS 6 Xposition Yposition Zposition Zrotation Xrotation Yrotation
JOINT rForeArm
{
OFFSET -26.12 0 0
CHANNELS 6 Xposition Yposition Zposition Zrotation Xrotation Yrotation
JOINT rHand
{
OFFSET -27.71 0 0
CHANNELS 6 Xposition Yposition Zposition Zrotation Xrotation Yrotation
JOINT rThumb1
{
OFFSET -2.29 -0.46 1.83
CHANNELS 6 Xposition Yposition Zposition Zrotation Xrotation Yrotation
JOINT rThumb2
{
OFFSET -5.29 0 0
CHANNELS 6 Xposition Yposition Zposition Zrotation Xrotation Yrotation
JOINT rThumb3
{
OFFSET -3.01 0 0
CHANNELS 6 Xposition Yposition Zposition Zrotation Xrotation Yrotation
End Site
{
OFFSET -2.62 0 0
}
}
}
}
JOINT rIndex1
{
OFFSET -9.37 0.29 2.59
CHANNELS 6 Xposition Yposition Zposition Zrotation Xrotation Yrotation
JOINT rIndex2
{
OFFSET -4.34 0 0
CHANNELS 6 Xposition Yposition Zposition Zrotation Xrotation Yrotation
JOINT rIndex3
{
OFFSET -2.16 0 0
CHANNELS 6 Xposition Yposition Zposition Zrotation Xrotation Yrotation
End Site
{
OFFSET -2.20 0 0
}
}
}
}
JOINT rMid1
{
OFFSET -9.47 0.83 0.29
CHANNELS 6 Xposition Yposition Zposition Zrotation Xrotation Yrotation
JOINT rMid2
{
OFFSET -4.77 0 0
CHANNELS 6 Xposition Yposition Zposition Zrotation Xrotation Yrotation
JOINT rMid3
{
OFFSET -2.87 0 0
CHANNELS 6 Xposition Yposition Zposition Zrotation Xrotation Yrotation
End Site
{
OFFSET -2.09 0 0
}
}
}
}
JOINT rRing1
{
OFFSET -8.65 1.01 -1.70
CHANNELS 6 Xposition Yposition Zposition Zrotation Xrotation Yrotation
JOINT rRing2
{
OFFSET -4.54 0 0
CHANNELS 6 Xposition Yposition Zposition Zrotation Xrotation Yrotation
JOINT rRing3
{
OFFSET -2.50 0 0
CHANNELS 6 Xposition Yposition Zposition Zrotation Xrotation Yrotation
End Site
{
OFFSET -2.20 0 0
}
}
}
}
JOINT rPinky1
{
OFFSET -7.69 0.66 -3.90
CHANNELS 6 Xposition Yposition Zposition Zrotation Xrotation Yrotation
JOINT rPinky2
{
OFFSET -3.21 0 0
CHANNELS 6 Xposition Yposition Zposition Zrotation Xrotation Yrotation
JOINT rPinky3
{
OFFSET -1.92 0 0
CHANNELS 6 Xposition Yposition Zposition Zrotation Xrotation Yrotation
End Site
{
OFFSET -1.78 0 0
}
}
}
}
}
}
}
}
}
}
JOINT lThigh
{
OFFSET 8.73 -0 0
CHANNELS 6 Xposition Yposition Zposition Zrotation Xrotation Yrotation
JOINT lShin
{
OFFSET 0 -46.66 0
CHANNELS 6 Xposition Yposition Zposition Zrotation Xrotation Yrotation
JOINT lFoot
{
OFFSET 0 -40.14 0
CHANNELS 6 Xposition Yposition Zposition Zrotation Xrotation Yrotation
JOINT lToes
{
OFFSET 0 -8.88 14.22
CHANNELS 6 Xposition Yposition Zposition Zrotation Xrotation Yrotation
End Site
{
OFFSET 0 0 6.29
}
}
}
}
}
JOINT rThigh
{
OFFSET -8.73 0 -0
CHANNELS 6 Xposition Yposition Zposition Zrotation Xrotation Yrotation
JOINT rShin
{
OFFSET 0 -46.66 0
CHANNELS 6 Xposition Yposition Zposition Zrotation Xrotation Yrotation
JOINT rFoot
{
OFFSET 0 -40.14 0
CHANNELS 6 Xposition Yposition Zposition Zrotation Xrotation Yrotation
JOINT rToes
{
OFFSET 0 -8.88 14.22
CHANNELS 6 Xposition Yposition Zposition Zrotation Xrotation Yrotation
End Site
{
OFFSET 0 0 6.29
}
}
}
}
}
}
MOTION
Frames: 5
Frame Time: 0.03
-0.11 88.76 -1.25 -3.20 13.49 -16.93 0 7.23 0 2.29 3.09 5.60 0 16.54 0 -0.16 8.07 11.53 0 34.21 0 -0.45 20.39 -0.23 0 6.29 0 -2.83 -48.30 -1.47 4.06 26.61 -1.12 -4.27 1.09 17.60 14.17 0 0 -64.87 36.27 18.61 26.12 0 0 -0.70 0.37 -55.34 27.71 0 0 -15.29 22.52 2.71 2.29 -0.46 1.83 71.79 59.90 -76.09 5.29 0 0 -25.86 5.07 -8.37 3.01 0 0 31.22 4.02 20.07 9.37 0.29 2.59 -66.16 -3.46 5.89 4.34 0 0 -83.01 -10.27 11.90 2.16 0 0 -72.38 -8.16 10.71 9.47 0.83 0.29 -65.30 -11.81 10.08 4.77 0 0 -79.74 -12.28 14.79 2.87 0 0 -71.42 -10.08 15.56 8.65 1.01 -1.70 -74.09 -6.59 11.63 4.54 0 0 -85.92 -7.36 7.90 2.50 0 0 -80.80 -6.60 8.74 7.69 0.66 -3.90 -75.22 -23.79 4.32 3.21 0 0 -79.47 -16.66 19.98 1.92 0 0 -69.89 -13.31 20.58 -4.06 26.61 -1.12 8.95 -1.95 -0.73 -14.17 0 0 46.35 44.39 33.78 -26.12 0 0 0.81 0.58 71.27 -27.71 0 0 -14.81 -9.47 15.65 -2.29 -0.46 1.83 -65.14 62.52 76.99 -5.29 0 0 26.15 6.75 -0.45 -3.01 0 0 -32.00 1.41 -16.15 -9.37 0.29 2.59 73.47 -1.14 -5.74 -4.34 0 0 104.66 -13.15 -10.38 -2.16 0 0 95.03 -11.35 -10.02 -9.47 0.83 0.29 84.33 -13.95 -7.55 -4.77 0 0 98.81 -15.71 -13.56 -2.87 0 0 88.24 -13.11 -14.95 -8.65 1.01 -1.70 92.43 -8.47 -8.93 -4.54 0 0 102.66 -8.16 -6.53 -2.50 0 0 83.54 -5.90 -7.44 -7.69 0.66 -3.90 92.60 -30.22 3.08 -3.21 0 0 90.85 -19.21 -18.93 -1.92 0 0 81.07 -15.97 -20.12 8.73 -0 0 20.73 -54.69 29.08 0 -46.66 0 170.86 46.48 -167.45 0 -40.14 0 -17.59 -22.76 4.28 0 -8.88 14.22 0 0 0 -8.73 0 -0 1.32 -4.01 -15.84 0 -46.66 0 -7.17 35.40 12.97 0 -40.14 0 4.07 -16.61 -2.91 0 -8.88 14.22 0 0 0 
0.01 90.61 -1.28 0.38 13.49 -15.29 0 7.23 0 0.42 2.16 7.07 0 16.54 0 -4.51 5.95 14.34 0 34.21 0 -0.81 19.99 -0.79 0 6.29 0 -4.29 -47.53 -5.21 4.06 26.61 -1.12 1.57 1.18 17.08 14.17 0 0 -68.79 41.83 29.31 26.12 0 0 -0.76 0.46 -62.54 27.71 0 0 -15.74 19.91 -2.02 2.29 -0.46 1.83 71.79 59.90 -76.09 5.29 0 0 -26.29 4.96 -8.38 3.01 0 0 30.26 2.99 19.86 9.37 0.29 2.59 -69.49 -4.16 6.35 4.34 0 0 -83.80 -10.43 11.92 2.16 0 0 -71.91 -8.07 10.68 9.47 0.83 0.29 -66.76 -12.08 10.08 4.77 0 0 -81.42 -12.72 14.86 2.87 0 0 -71.48 -10.10 15.56 8.65 1.01 -1.70 -75.58 -6.86 11.76 4.54 0 0 -87.28 -7.54 7.91 2.50 0 0 -80.69 -6.58 8.74 7.69 0.66 -3.90 -76.77 -24.19 4.46 3.21 0 0 -80.64 -17.07 20.06 1.92 0 0 -70.26 -13.44 20.62 -4.06 26.61 -1.12 6.89 -2.17 -1.36 -14.17 0 0 41.89 46.13 39.84 -26.12 0 0 0.85 0.75 83.18 -27.71 0 0 -12.60 2.61 20.80 -2.29 -0.46 1.83 -65.14 62.52 76.99 -5.29 0 0 26.21 6.69 -0.45 -3.01 0 0 -31.58 0.16 -15.40 -9.37 0.29 2.59 73.79 -1.20 -5.75 -4.34 0 0 104.68 -13.15 -10.38 -2.16 0 0 94.77 -11.31 -10.02 -9.47 0.83 0.29 84.59 -14.00 -7.58 -4.77 0 0 98.47 -15.63 -13.57 -2.87 0 0 88.07 -13.07 -14.95 -8.65 1.01 -1.70 91.60 -8.34 -8.87 -4.54 0 0 102.35 -8.12 -6.54 -2.50 0 0 83.39 -5.88 -7.44 -7.69 0.66 -3.90 90.34 -29.97 2.87 -3.21 0 0 90.35 -19.05 -18.93 -1.92 0 0 80.52 -15.79 -20.09 8.73 -0 0 16.00 -62.91 24.33 0 -46.66 0 169.64 55.36 -154.43 0 -40.14 0 -19.39 -24.75 3.59 0 -8.88 14.22 0 0 -0 -8.73 0 -0 -4.99 6.62 -21.46 0 -46.66 0 -2.07 21.91 11.77 0 -40.14 0 7.12 -4.60 -1.01 0 -8.88 14.22 0 0 0 
0.12 92.55 -1.93 3.09 14.94 -13.55 0 7.23 0 -1.46 0.91 8.07 0 16.54 0 -7.38 3.24 15.98 0 34.21 0 -1.02 19.76 -1.24 0 6.29 0 -5.12 -46.76 -7.99 4.06 26.61 -1.12 5.37 1.17 16.41 14.17 0 0 -70.21 43.51 36.35 26.12 0 0 -0.79 0.53 -67.82 27.71 0 0 -17.24 16.59 -5.04 2.29 -0.46 1.83 71.79 59.90 -76.09 5.29 0 0 -27.36 4.66 -8.42 3.01 0 0 29.73 2.40 19.71 9.37 0.29 2.59 -70.40 -4.28 6.23 4.34 0 0 -83.89 -10.45 11.93 2.16 0 0 -71.16 -7.93 10.64 9.47 0.83 0.29 -67.28 -12.17 10.29 4.77 0 0 -82.07 -12.89 14.89 2.87 0 0 -71.61 -10.13 15.57 8.65 1.01 -1.70 -76.21 -6.98 11.88 4.54 0 0 -87.46 -7.57 7.91 2.50 0 0 -80.92 -6.61 8.75 7.69 0.66 -3.90 -77.95 -24.56 4.62 3.21 0 0 -80.38 -16.98 20.04 1.92 0 0 -70.50 -13.52 20.65 -4.06 26.61 -1.12 6.89 -2.21 -2.78 -14.17 0 0 34.91 45.61 45.75 -26.12 0 0 0.85 0.91 93.85 -27.71 0 0 -14.06 12.96 23.21 -2.29 -0.46 1.83 -65.14 62.52 76.99 -5.29 0 0 25.99 6.76 -0.47 -3.01 0 0 -31.30 -0.65 -14.90 -9.37 0.29 2.59 70.57 -0.78 -5.70 -4.34 0 0 105.77 -13.35 -10.32 -2.16 0 0 94.61 -11.28 -10.02 -9.47 0.83 0.29 83.14 -13.76 -7.85 -4.77 0 0 98.55 -15.65 -13.57 -2.87 0 0 88.15 -13.09 -14.95 -8.65 1.01 -1.70 90.03 -8.09 -9.05 -4.54 0 0 102.23 -8.11 -6.54 -2.50 0 0 83.53 -5.89 -7.44 -7.69 0.66 -3.90 87.55 -29.76 2.45 -3.21 0 0 89.97 -18.92 -18.93 -1.92 0 0 80.02 -15.62 -20.06 8.73 -0 0 9.13 -68.66 17.80 0 -46.66 0 164.07 67.26 -148.25 0 -40.14 0 -9.96 -23.82 6.07 0 -8.88 14.22 0 0 0 -8.73 0 -0 -9.25 8.93 -23.50 0 -46.66 0 -1.18 21.53 8.16 0 -40.14 0 12.66 7.95 -3.93 0 -8.88 14.22 0 0 0 
0.24 95.04 -2.50 3.85 17.00 -12.31 0 7.23 0 -2.36 -0.05 8.68 0 16.54 0 -8.18 1.25 16.95 0 34.21 0 -1.51 19.47 -1.45 0 6.29 0 -6.23 -46.59 -10.05 4.06 26.61 -1.12 3.47 1.07 15.52 14.17 0 0 -64.16 42.39 36.32 26.12 0 0 -0.80 0.56 -69.62 27.71 0 0 -17.51 15.85 -5.90 2.29 -0.46 1.83 71.79 59.90 -76.09 5.29 0 0 -28.63 4.23 -8.46 3.01 0 0 28.95 1.58 19.50 9.37 0.29 2.59 -69.85 -4.01 5.73 4.34 0 0 -82.96 -10.26 11.90 2.16 0 0 -70.47 -7.79 10.59 9.47 0.83 0.29 -67.01 -12.12 10.58 4.77 0 0 -80.69 -12.53 14.83 2.87 0 0 -71.46 -10.09 15.56 8.65 1.01 -1.70 -75.99 -6.94 11.83 4.54 0 0 -85.75 -7.33 7.90 2.50 0 0 -80.97 -6.62 8.75 7.69 0.66 -3.90 -78.27 -24.61 4.62 3.21 0 0 -78.97 -16.49 19.95 1.92 0 0 -70.07 -13.37 20.60 -4.06 26.61 -1.12 5.96 -2.31 -5.17 -14.17 0 0 29.18 44.16 51.04 -26.12 0 0 0.84 1.02 100.98 -27.71 0 0 -17.66 17.46 23.42 -2.29 -0.46 1.83 -65.14 62.52 76.99 -5.29 0 0 25.46 6.94 -0.53 -3.01 0 0 -31.23 -0.94 -14.70 -9.37 0.29 2.59 66.49 -0.59 -5.72 -4.34 0 0 105.79 -13.35 -10.32 -2.16 0 0 94.84 -11.32 -10.02 -9.47 0.83 0.29 80.76 -13.38 -8.25 -4.77 0 0 98.56 -15.65 -13.57 -2.87 0 0 88.11 -13.08 -14.95 -8.65 1.01 -1.70 87.60 -7.70 -9.41 -4.54 0 0 101.60 -8.04 -6.56 -2.50 0 0 83.29 -5.87 -7.43 -7.69 0.66 -3.90 82.92 -29.42 1.77 -3.21 0 0 90.14 -18.98 -18.93 -1.92 0 0 79.29 -15.39 -20.01 8.73 -0 0 5.87 -70.59 13.57 0 -46.66 0 133.03 80.92 -122.86 0 -40.14 0 -7.73 -20.99 6.51 0 -8.88 14.22 0 0 -0 -8.73 0 -0 -9.37 13.18 -22.72 0 -46.66 0 -2.23 18.72 2.79 0 -40.14 0 14.33 14.61 -6.75 0 -8.88 14.22 0 0 0 
0.34 97.55 -2.76 3.18 17.94 -11.45 0 7.23 0 -2.61 -0.20 8.72 0 16.54 0 -7.63 0.99 17.04 0 34.21 0 -1.93 19.16 -1.41 0 6.29 0 -6.71 -47.12 -10.52 4.06 26.61 -1.12 -1.12 0.95 14.87 14.17 0 0 -55.70 39.02 31.24 26.12 0 0 -0.79 0.53 -67.86 27.71 0 0 -15.83 17.61 -5.34 2.29 -0.46 1.83 71.79 59.90 -76.09 5.29 0 0 -29.97 3.72 -8.52 3.01 0 0 28.36 0.95 19.34 9.37 0.29 2.59 -69.07 -3.66 5.09 4.34 0 0 -81.21 -9.90 11.85 2.16 0 0 -70.06 -7.71 10.56 9.47 0.83 0.29 -66.20 -11.97 10.79 4.77 0 0 -77.46 -11.70 14.67 2.87 0 0 -71.07 -10 15.53 8.65 1.01 -1.70 -75.13 -6.78 11.67 4.54 0 0 -82.64 -6.91 7.85 2.50 0 0 -80.69 -6.58 8.74 7.69 0.66 -3.90 -77.90 -24.36 4.44 3.21 0 0 -77.06 -15.83 19.80 1.92 0 0 -69.18 -13.07 20.49 -4.06 26.61 -1.12 4.19 -2.44 -6.87 -14.17 0 0 28.02 43.86 53.11 -26.12 0 0 0.83 1.06 103.75 -27.71 0 0 -20.95 16.72 21.98 -2.29 -0.46 1.83 -65.14 62.52 76.99 -5.29 0 0 24.69 7.19 -0.61 -3.01 0 0 -31.34 -0.79 -14.75 -9.37 0.29 2.59 63.65 -0.74 -5.80 -4.34 0 0 104.30 -13.09 -10.39 -2.16 0 0 95.46 -11.43 -10.01 -9.47 0.83 0.29 78.69 -13.04 -8.59 -4.77 0 0 98.28 -15.59 -13.58 -2.87 0 0 87.93 -13.04 -14.95 -8.65 1.01 -1.70 85.13 -7.30 -9.76 -4.54 0 0 100.52 -7.91 -6.58 -2.50 0 0 82.95 -5.83 -7.43 -7.69 0.66 -3.90 78.16 -29.00 1.23 -3.21 0 0 90.25 -19.01 -18.93 -1.92 0 0 78.63 -15.17 -19.97 8.73 -0 0 5.85 -67.19 12.59 0 -46.66 0 27.07 75.28 -19.75 0 -40.14 0 -6.85 -18.61 6.76 0 -8.88 14.22 0 0 -0 -8.73 0 -0 -7.00 19.23 -20.51 0 -46.66 0 -5.02 15.26 0.99 0 -40.14 0 10.30 16.29 -7.49 0 -8.88 14.22 0 0 0 
